<svg xmlns="http://www.w3.org/2000/svg" baseProfile="full" version="1.1" width="240px" height="150px" style="fill: none; width: 240px; height: 150px;"><path d="" style="stroke-width: 10; stroke-linecap: round; stroke-linejoin: round; stroke: rgb(189, 184, 184); fill: none;"/><path d="" style="stroke-width: 10; stroke-linecap: round; stroke-linejoin: round; stroke: rgb(132, 117, 119); fill: none;"/><path d="M120,15 A60,60 0 0,0 60,75 L60,75 A60,60 0 0,0 120,135 L120,135 A60,60 0 0,0 180,75 M120,15 A60,60 0 0,1 180,75 M120,45 A30,15 0 0,1 150,60 M120,45 A30,30 0 0,0 90,75 L90,75 A30,30 0 0,0 120,105 L120,105 A30,15 0 0,0 150,90 M180,15 L180,15 L60,135 " style="stroke-width: 10; stroke-linecap: round; stroke-linejoin: round; stroke: rgb(58, 55, 56); fill: none;"/></svg>