<svg xmlns="http://www.w3.org/2000/svg" baseProfile="full" version="1.1" width="255px" height="180px" style="fill: none; width: 255px; height: 180px;"><path d="" style="stroke-width: 10; stroke-linecap: round; stroke-linejoin: round; stroke: rgb(255, 255, 255); fill: none;"/><path d="" style="stroke-width: 10; stroke-linecap: round; stroke-linejoin: round; stroke: rgb(119, 119, 119); fill: none;"/><path d="M135,15 A75,75 0 0,1 210,90 A75,75 0 0,1 135,165 A75,75 0 0,1 60,90 L60,90 A75,75 0 0,1 135,15 M105,75 A30,30 0 0,1 135,45 A30,30 0 0,1 165,75 L165,75 A30,30 0 0,1 135,105 L135,105 L135,120 M135,135 L135,135 L135,135 " style="stroke-width: 10; stroke-linecap: round; stroke-linejoin: round; stroke: rgb(0, 0, 0); fill: none;"/></svg>